# xmcd
#
# Track frame offsets: 
#        150
#        15974
#        30230
#        45113
#        61094
#        76291
#        89921
#        105118
#        121099
#        136923
#        151493
#        166847
#        181103
#        196770
#        212124
#        227478
#        241421
#        255991
#        268680
#        282310
#        295783
#        310510
#        323826
#        337299
#
# Disc length: 4695 seconds
#
# Revision: 0
# Processed by: cddbd v1.5.1PL0 Copyright (c) Steve Scherf et al.
# Submitted via: ExactAudioCopy v0.95a5
#
DISCID=2e125518
DTITLE=Bessie Smith - Greatest Hits
DYEAR=1933
DGENRE=Blues
TTITLE0=Down Hearted Blues
TTITLE1=Gulf Coast Blues
TTITLE2=Jailhouse Blues
TTITLE3=St Louis Gal
TTITLE4=Aggravatin' Papa
TTITLE5=Baby Won't You Please Come Home
TTITLE6=Chicago Bound Blues
TTITLE7='Ain't Nobody's Business If I Do
TTITLE8=Any Woman's Blues
TTITLE9=Easy Come Easy Go Blues
TTITLE10=Ticket Agent, Ease Your Window Down
TTITLE11=Hateful Blues
TTITLE12=Careless Love Blues
TTITLE13=New Gulf Coast Blues
TTITLE14=I Ain't Gonna Play No Second Fiddle
TTITLE15=The Yellow Dog Blues
TTITLE16=I Ain't Got Nobody
TTITLE17=What's The Matter Now
TTITLE18=Baby Doll
TTITLE19=Hard Drivin' Papa
TTITLE20=The Gin House Blues
TTITLE21=Lost Your Head Blues
TTITLE22=After You've Gone
TTITLE23=Backwater Blues
EXTD=
EXTT0=
EXTT1=
EXTT2=
EXTT3=
EXTT4=
EXTT5=
EXTT6=
EXTT7=
EXTT8=
EXTT9=
EXTT10=
EXTT11=
EXTT12=
EXTT13=
EXTT14=
EXTT15=
EXTT16=
EXTT17=
EXTT18=
EXTT19=
EXTT20=
EXTT21=
EXTT22=
EXTT23=
PLAYORDER=
